<svg width="1693" height="470" viewBox="0 0 1693 470" fill="none" xmlns="http://www.w3.org/2000/svg">
<path d="M594 65C608.185 65.6885 626.205 65.1963 640.685 65.2726C648.582 82.7359 656.689 105.778 663.867 124.158C672.287 145.721 683.672 171.665 690.752 193.339C701.587 161.552 716.25 128.833 727.687 97.091C731.495 86.534 736.455 75.8498 739.825 65.2015L787 65.401L786.863 241.87C775.975 241.778 764.852 241.948 753.945 242L753.925 152.887L753.833 114.293C749.122 128.09 742.697 143.784 737.351 157.529L704.453 241.941C695.175 241.7 685.066 241.941 675.729 241.993C671.96 229.025 660.451 201.463 655.158 188.325C645.84 165.178 636.536 138.705 626.637 116.203C627.651 130.287 626.912 152.659 626.898 167.388C627.108 192.217 627.114 217.053 626.905 241.883L594.118 241.909C594.674 183.865 594.641 123.03 594 65Z" fill="#EDEDED"/>
<path d="M328.379 65.2443C354.597 64.813 381.011 65.5923 407.207 65.1623C432.063 64.7545 456.522 73.5152 465.969 98.5275C471.995 114.672 471.266 132.562 463.937 148.158C457.773 161.455 447.694 170.31 433.958 175.372C442.202 187.36 448.965 198.905 456.34 211.413C462.34 221.583 468.744 231.532 474.49 241.864C465.487 241.734 456.476 241.695 447.466 241.747L436.293 241.858C427.34 227.101 419.304 211.517 410.758 196.507C407.777 191.275 404.953 185.627 400.903 181.138C390.016 180.395 376.153 180.838 365.042 180.929L365.093 241.655C353.063 241.512 340.618 241.727 328.557 241.773C327.415 183.841 328.56 123.466 328.379 65.2443ZM412.922 95.4611C397.874 93.1698 380.5 94.72 365.064 94.5402L365.057 151.789C383.667 151.49 413.24 155.405 427.312 143.28C441.85 127.442 434.88 98.8046 412.922 95.4611Z" fill="#EDEDED"/>
<path d="M194.924 65.2389C208.44 65.1399 221.958 65.1812 235.474 65.363L301.02 241.621C288.858 241.412 275.787 241.738 263.556 241.816C258.944 228.708 254.15 215.665 249.173 202.687L236.382 202.733C217.627 202.655 198.872 202.681 180.117 202.811C175.177 215.783 170.392 228.812 165.764 241.901C153.371 241.699 140.975 241.686 128.582 241.869C143.527 203.307 158.1 164.601 172.298 125.758C179.704 105.881 188.295 85.212 194.924 65.2389ZM214.483 103.591C208.528 124.572 196.969 153.571 189.239 174.184L214.883 174.217L238.706 174.165C235.005 164.066 218.543 108.41 214.483 103.591Z" fill="#EDEDED"/>
<path d="M0 65C15.4263 65.6807 34.512 65.1592 50.2199 65.1592L140.863 65.077C141.129 74.6317 140.928 84.9591 140.913 94.5706L87.4735 94.686L87.5152 188.444L87.5008 241.839C75.6402 242.126 63.0696 241.937 51.1548 241.957C50.7285 203.675 51.3361 165.257 51.0733 126.962C50.9997 116.227 50.9801 105.314 51.3081 94.5914L0.185814 94.6254C0.191681 84.7503 0.129742 74.8745 0 65Z" fill="#EDEDED"/>
<path d="M1480.1 70.5801C1514.82 69.6583 1551.6 70.283 1586.56 70.1641C1586.17 85.8451 1587.56 206.689 1585.3 210.406C1551.88 211.625 1513.31 210.425 1479.55 210.188C1478.79 180.68 1479.97 149.528 1479.57 119.822C1479.45 111.427 1478.83 76.9434 1480.1 70.5801ZM1557.68 92.416C1540.84 92.416 1523.72 92.2471 1506.91 92.4453C1506.95 123.667 1507.43 156.118 1506.83 187.231C1523.35 187.321 1541.82 187.806 1558.18 187.231C1557.53 155.663 1558.18 124.064 1557.68 92.416Z" fill="#EDEDED"/>
<path d="M512 65.0405L548 65L547.967 241.928L512.072 242L512 65.0405Z" fill="#EDEDED"/>
<path d="M832 65.0964C843.669 64.9521 855.338 64.9697 867 65.15L866.974 241.928L832.09 242L832 65.0964Z" fill="#EDEDED"/>
<path d="M918 0.163405C923.001 -0.0812544 928.002 -0.0513293 933 0.254219L932.989 299.878L918.039 300L918 0.163405Z" fill="#F51E70"/>
<path d="M1234 69.2511C1266.19 69.2611 1299.1 68.6552 1331.17 69.2909C1331.64 95.9632 1331.28 124.265 1331.04 151.007L1263.5 151.285L1263.55 192.401C1292.7 192.133 1321.85 192.113 1351 192.341L1350.8 213.828C1348.5 215.855 1249.82 214.653 1236.44 214.583C1236.96 186.629 1236.62 157.692 1236.45 129.718C1258.68 129.242 1281.95 129.49 1304.26 129.41L1304.23 91.8605C1280.84 91.6321 1257.45 91.6718 1234.06 91.9698L1234 69.2511Z" fill="#EDEDED"/>
<path d="M984.275 69.7706C1011 68.693 1056.21 68.782 1082.94 69.8102L1082.97 91.1643L1012.27 91.0754L1012.26 129.523L1081.67 129.562L1081.54 150.818C1059.43 151.51 1034.28 150.936 1011.94 150.887C1012.17 164.352 1012.27 177.817 1012.25 191.282L1091 191.143L1090.99 213.881L984 214L984.275 69.7706Z" fill="#EDEDED"/>
<path d="M1115 57.1016C1124.05 56.8842 1133.8 57.0818 1142.91 57.0917C1143.09 81.8531 1143.03 106.615 1142.71 131.376C1152.73 130.931 1159.91 130.644 1170 131.158L1169.79 153.755L1142.89 154.111L1142.92 229.858L1142.99 257.526C1133.67 257.506 1124.34 257.664 1115.02 258L1115 57.1016Z" fill="#EDEDED"/>
<path d="M1622 57.0203C1631.66 56.951 1641.33 57.0598 1650.98 57.3369L1651 257.545L1622.37 258C1622.06 191.884 1623.62 122.859 1622 57.0203Z" fill="#EDEDED"/>
<path d="M1373 57.0612C1382.5 56.9622 1392.01 56.9819 1401.53 57.1304C1402.39 76.5621 1401.8 102.032 1401.83 121.919V257.564L1373.12 258C1373.02 191.261 1373.92 123.721 1373 57.0612Z" fill="#EDEDED"/>
<path d="M367.842 461L411.608 350.4H434.36L477.81 461H450.634L429.778 404.91C428.935 402.698 428.093 400.328 427.25 397.8C426.407 395.272 425.565 392.691 424.722 390.058C423.879 387.319 423.037 384.686 422.194 382.158C421.457 379.525 420.825 377.102 420.298 374.89L425.038 374.732C424.406 377.365 423.669 379.946 422.826 382.474C422.089 385.002 421.299 387.53 420.456 390.058C419.719 392.481 418.876 394.956 417.928 397.484C416.98 399.907 416.085 402.435 415.242 405.068L394.386 461H367.842ZM388.698 439.828L397.072 419.604H447.948L456.164 439.828H388.698ZM528.265 462.58C520.997 462.58 514.414 461.737 508.515 460.052C502.722 458.261 497.56 455.733 493.031 452.468C488.502 449.097 484.446 445.147 480.865 440.618L497.139 422.132C502.406 429.189 507.672 433.929 512.939 436.352C518.311 438.775 523.841 439.986 529.529 439.986C532.373 439.986 534.954 439.617 537.271 438.88C539.588 438.143 541.379 437.089 542.643 435.72C543.907 434.245 544.539 432.455 544.539 430.348C544.539 428.768 544.118 427.346 543.275 426.082C542.538 424.818 541.484 423.712 540.115 422.764C538.746 421.816 537.113 420.973 535.217 420.236C533.321 419.393 531.32 418.709 529.213 418.182C527.106 417.55 524.947 417.023 522.735 416.602C516.626 415.233 511.306 413.547 506.777 411.546C502.248 409.545 498.456 407.122 495.401 404.278C492.452 401.329 490.24 398.011 488.765 394.324C487.29 390.532 486.553 386.319 486.553 381.684C486.553 376.733 487.659 372.204 489.871 368.096C492.188 363.883 495.243 360.301 499.035 357.352C502.932 354.297 507.409 351.98 512.465 350.4C517.521 348.715 522.788 347.872 528.265 347.872C535.533 347.872 541.748 348.662 546.909 350.242C552.176 351.717 556.652 353.876 560.339 356.72C564.131 359.564 567.344 362.987 569.977 366.99L553.387 382.948C551.175 380.209 548.752 377.945 546.119 376.154C543.591 374.363 540.852 372.994 537.903 372.046C535.059 371.098 532.11 370.624 529.055 370.624C525.895 370.624 523.156 371.045 520.839 371.888C518.627 372.625 516.889 373.731 515.625 375.206C514.361 376.575 513.729 378.261 513.729 380.262C513.729 382.053 514.256 383.58 515.309 384.844C516.362 386.108 517.784 387.267 519.575 388.32C521.366 389.268 523.42 390.111 525.737 390.848C528.054 391.48 530.477 392.007 533.005 392.428C538.798 393.587 544.012 395.114 548.647 397.01C553.387 398.906 557.442 401.223 560.813 403.962C564.289 406.701 566.922 409.966 568.713 413.758C570.609 417.445 571.557 421.763 571.557 426.714C571.557 434.403 569.661 440.934 565.869 446.306C562.182 451.573 557.074 455.628 550.543 458.472C544.118 461.211 536.692 462.58 528.265 462.58ZM589.536 461V438.406H608.18V372.994H589.536V350.4H653.842V372.994H635.04V438.406H653.842V461H589.536ZM665.326 461L709.092 350.4H731.844L775.294 461H748.118L727.262 404.91C726.42 402.698 725.577 400.328 724.734 397.8C723.892 395.272 723.049 392.691 722.206 390.058C721.364 387.319 720.521 384.686 719.678 382.158C718.941 379.525 718.309 377.102 717.782 374.89L722.522 374.732C721.89 377.365 721.153 379.946 720.31 382.474C719.573 385.002 718.783 387.53 717.94 390.058C717.203 392.481 716.36 394.956 715.412 397.484C714.464 399.907 713.569 402.435 712.726 405.068L691.87 461H665.326ZM686.182 439.828L694.556 419.604H745.432L753.648 439.828H686.182ZM789.093 461V350.4H813.109L871.095 429.4L865.881 428.61C865.355 425.134 864.933 421.816 864.617 418.656C864.301 415.496 863.985 412.389 863.669 409.334C863.459 406.279 863.248 403.172 863.037 400.012C862.932 396.852 862.827 393.429 862.721 389.742C862.721 386.055 862.721 382.053 862.721 377.734V350.4H888.791V461H864.459L803.945 379.472L812.003 380.578C812.53 385.634 812.951 389.953 813.267 393.534C813.689 397.01 814.005 400.117 814.215 402.856C814.531 405.595 814.742 408.07 814.847 410.282C814.953 412.494 815.005 414.706 815.005 416.918C815.111 419.025 815.163 421.395 815.163 424.028V461H789.093ZM967.152 461V350.4H991.168L1031.46 415.97L1014.24 415.812L1055 350.4H1078.07V461H1052V426.556C1052 417.076 1052.21 408.544 1052.63 400.96C1053.16 393.376 1054 385.845 1055.16 378.366L1058.16 386.582L1027.51 434.14H1017.08L987.06 386.898L990.062 378.366C991.221 385.423 992.011 392.691 992.432 400.17C992.959 407.543 993.222 416.339 993.222 426.556V461H967.152ZM1091.8 461L1135.57 350.4H1158.32L1201.77 461H1174.59L1153.74 404.91C1152.9 402.698 1152.05 400.328 1151.21 397.8C1150.37 395.272 1149.53 392.691 1148.68 390.058C1147.84 387.319 1147 384.686 1146.15 382.158C1145.42 379.525 1144.79 377.102 1144.26 374.89L1149 374.732C1148.37 377.365 1147.63 379.946 1146.79 382.474C1146.05 385.002 1145.26 387.53 1144.42 390.058C1143.68 392.481 1142.84 394.956 1141.89 397.484C1140.94 399.907 1140.05 402.435 1139.2 405.068L1118.35 461H1091.8ZM1112.66 439.828L1121.03 419.604H1171.91L1180.12 439.828H1112.66ZM1215.57 461V350.4H1265.34C1272.4 350.4 1278.77 351.927 1284.46 354.982C1290.25 358.037 1294.78 362.25 1298.05 367.622C1301.31 372.889 1302.94 378.893 1302.94 385.634C1302.94 392.586 1301.31 398.853 1298.05 404.436C1294.78 409.913 1290.3 414.232 1284.62 417.392C1278.93 420.552 1272.5 422.132 1265.34 422.132H1241.17V461H1215.57ZM1276.87 461L1248.75 411.072L1276.24 407.122L1307.53 461H1276.87ZM1241.17 401.592H1262.97C1265.71 401.592 1268.08 401.013 1270.08 399.854C1272.19 398.59 1273.77 396.852 1274.82 394.64C1275.98 392.428 1276.56 389.9 1276.56 387.056C1276.56 384.212 1275.93 381.737 1274.66 379.63C1273.4 377.418 1271.55 375.733 1269.13 374.574C1266.81 373.415 1263.97 372.836 1260.6 372.836H1241.17V401.592ZM1347.44 461V374.1H1314.58V350.4H1407.95V374.1H1374.3V461H1347.44Z" fill="#F51E70"/>
</svg>
