<svg width="774" height="835" viewBox="0 0 774 835" fill="none" xmlns="http://www.w3.org/2000/svg">
<path d="M222.129 137.192C221.828 135.012 223.96 132.756 225.173 131.011C244.762 102.838 290.682 96.3915 317.565 117.393C321.812 120.711 334.124 132.885 334.024 138.444C332.338 138.979 332.567 138.388 330.978 138.433C357.304 181.218 352.564 231.954 328.314 273.997C315.366 296.445 293.54 319.967 294.885 347.57C297.928 383.246 317.024 378.422 342.681 370.934C364.443 364.582 392.689 364.859 414.774 368.723C469.016 379.52 527.238 417.796 559.467 462.243C607.68 479.36 640.232 529.794 659.655 574.749C660.865 577.543 667.387 591.518 666.996 593.696C663.472 595.191 656.164 588.546 653.204 586.231C663.642 606.626 671.875 628.193 670.924 651.459C670.614 659.094 669.999 667.956 666.449 674.856C663.077 670.72 659.99 665.697 656.669 661.892C649.408 653.574 641.909 645.463 634.606 637.14C641.357 658.054 644.852 676.92 643.005 699.069C642.449 705.765 641.459 713.425 638.364 719.481C636.775 722.61 634.61 725.413 631.973 727.731L631.684 727.188C629.383 722.789 627.964 718.177 625.867 713.85C622.814 707.553 619.242 700.691 615.735 694.648C611.17 686.852 606.38 679.196 601.37 671.676C598.614 667.497 594.431 661.557 592.117 657.306C592.304 673.463 590.89 688.266 580.707 701.349L580.342 700.788C576.941 695.54 574.41 689.79 570.983 684.41C563.136 672.105 554.35 661.226 545.136 649.952C545.076 660.741 543.654 679.68 536.957 688.372C525.114 683.689 514.72 663.124 507.48 652.652C503.654 647.115 499.628 641.191 495.764 635.633C495.458 637.064 495.39 638.232 494.448 639.298C491.628 639.166 473.666 623.489 470.38 620.559C474.15 637.459 474.872 650.151 469.437 666.618C465.696 675.973 463.802 676.661 454.201 673.052C451.445 670.381 444.069 666.151 440.328 662.979C427.377 652.007 421.415 639.943 412.265 626.283C413.679 641.964 414.171 656.992 405.738 670.805C397.925 677.005 397.092 677.489 388.986 671.786C386.846 669.833 381.695 665.383 380.065 663.391C365.198 645.217 352.876 620.652 348.334 597.773C337.496 592.011 320.02 587.187 307.926 581.998C263.477 563.399 227.888 531.187 210.903 485.883C188.282 425.542 196.369 363.548 235.14 312.155C247.557 295.696 262.463 277.201 271.252 258.739C281.871 236.434 277.97 212.842 256.349 199.231C247.775 193.545 240.134 188.703 230.522 184.697C235.675 176.928 242.254 174.439 248.01 168.145C236.547 158.756 229.58 150.329 222.485 137.279L222.129 137.192Z" fill="#FEFEFE"/>
<path d="M222.13 137.192C221.83 135.012 223.961 132.756 225.174 131.011C244.763 102.838 290.684 96.3915 317.566 117.393C321.814 120.711 334.126 132.885 334.026 138.444C332.339 138.979 332.568 138.388 330.98 138.433C322.243 137.663 313.018 135.539 303.484 134.937C279.201 133.404 246.468 133.413 222.486 137.279L222.13 137.192Z" fill="#FC2840"/>
<path d="M531.369 468.648C540.995 468.712 551.322 469.799 560.379 473.273C600.133 488.534 632.69 537.936 649.62 575.265C641.047 568.089 632.431 561.137 622.478 555.948C625.7 560.925 629.96 564.874 632.936 569.541C645.267 588.849 655.582 611.8 659.378 634.475C660.478 641.044 660.554 648.293 660.652 654.887C648.817 637.227 628.384 616.806 612.388 602.981C623.153 629.732 632.044 655.227 632.652 684.607C632.8 691.72 632.078 698.527 631.433 705.597C620.087 677.499 594.15 643.078 573.704 620.857C581.462 643.104 583.276 655.953 580.371 679.214C562.723 655.605 548.868 637.371 527.398 616.522C533.369 631.669 536.396 655.036 532.604 670.951C526.613 663.325 521.747 655.452 516.515 647.316C506.71 633.235 500.63 624.917 488.523 612.709C488.6 616.407 488.914 620.102 489.47 623.758C474.562 610.581 457.831 585.579 447.432 568.462C381.287 570.029 320.484 547.052 296.951 479.927C298.161 481.536 299.388 483.133 300.632 484.717C331.004 523.273 368.102 547.035 416.493 554.11C423.47 555.133 430.302 556.742 437.394 557.592C436.604 552.288 436.09 547.18 435.546 541.851C438.574 543.804 441.712 545.583 444.944 547.18C453.173 551.303 472.596 561.702 481.449 559.511C489.394 557.545 475.763 530.309 473.823 525.604C481.649 532.262 487.143 535.749 496.681 539.715C547.772 560.972 521.076 529.01 506.349 505.247C519.131 513.056 535.556 519.345 550.422 521.906C553.84 522.492 559.963 523.638 563.021 521.833C568.63 514.377 536.795 475.825 531.369 468.648Z" fill="black"/>
<path d="M244.172 178.732C262.608 184.201 285.59 177.798 302.171 186.596C321.799 197.011 328.147 219.815 325.158 240.426C321.885 266.793 305.784 287.29 293.058 309.739C279.227 334.136 277.529 371.086 305.85 385.851C302.496 388.071 298.93 389.953 295.205 391.468C285.691 395.031 275.383 395.92 265.4 394.039C256.528 392.302 248.75 387.015 243.87 379.404C237.77 370.041 237.291 360.875 238.671 350.058C240.076 339.042 243.088 326.527 248.098 316.589C260.372 292.244 280.36 275.55 285.976 247.637C289.509 231.451 288.127 213.023 275.424 201.003C266.358 192.425 253.183 187.892 244.35 179.152C244.291 179.012 244.232 178.872 244.172 178.732Z" fill="black"/>
<path d="M264.205 140.337C270.017 139.2 275.654 142.975 276.816 148.782C277.977 154.59 274.227 160.243 268.425 161.429C262.587 162.624 256.891 158.845 255.723 153.002C254.554 147.16 258.357 141.48 264.205 140.337Z" fill="black"/>
<path d="M454.202 673.05C463.803 676.66 465.697 675.972 469.438 666.617C476.228 679.174 477.697 686.235 486.691 698.842C485.497 711.407 482.954 725.42 481.238 738.044C479.323 752.55 477.829 767.11 476.758 781.705C476.173 788.898 475.391 796.975 475.803 804.147C476.682 811.429 482.894 816.317 487.68 821.102C489.557 822.979 495.107 827.811 494.44 830.338C491.531 841.374 475.892 823.811 469.272 824.533C463.735 825.14 459.782 825.62 455.247 826.244C441.068 828.304 426.852 830.096 412.601 831.616C407.773 832.147 396.164 834.427 392.418 831.62C390.478 827.637 394.856 825.34 397.735 823.612C380.817 827.552 363.841 829.404 346.603 831.336C341.847 831.867 329.164 834.206 325.251 833.998C323.914 833.153 324.324 833.718 323.863 832.325C325.415 821.646 349.418 820.21 358.69 817.671C385.28 810.389 384.822 818.516 387.514 789.641C388.422 780.423 389.263 771.2 390.032 761.968C391.327 747.344 392.342 732.694 393.076 718.031C393.399 710.842 393.854 702.983 393.399 695.811C392.89 687.658 389.977 680.04 388.987 671.785C397.093 677.488 397.926 677.004 405.739 670.804C406.826 673.56 408.949 678.537 409.081 681.258C409.794 695.751 408.278 712.019 406.953 726.397C405.081 745.641 403.382 764.902 401.854 784.181C401.327 791.038 399.994 804.045 400.813 810.444C404.626 813.985 414.801 819.378 419.896 818.61C429.234 817.2 452.007 814.711 458.606 808.677C462.028 805.548 463.523 780.465 463.956 775.17L466.758 738.494L468.194 717.726C468.347 715.437 468.975 707.475 468.627 705.543C466.784 695.225 457.697 682.256 454.202 673.05Z" fill="#FEC401"/>
<path d="M222.128 137.191L222.484 137.278C229.58 150.329 236.546 158.755 248.01 168.144C242.254 174.438 235.675 176.928 230.522 184.696C227.311 184.25 219.92 182.43 216.211 181.71C205.436 179.605 194.623 177.702 183.777 176.001L140.204 169.501C133.982 168.538 117.732 167.085 114.582 162.997C109.706 156.67 137.002 152.995 139.937 152.393C158.083 148.566 176.33 145.235 194.657 142.401C199.596 141.644 219.276 139.191 222.128 137.191Z" fill="#FEC401"/>
<path d="M160.488 162.99C181.703 161.629 228.495 159.076 246.371 168.86C221.612 164.627 187.545 162.679 162.108 163.956L160.488 162.99Z" fill="url(#paint0_linear_1351_6687)"/>
<path d="M152.094 163.467C155.035 163.219 157.538 163.008 160.487 162.99L162.107 163.956L153.059 164.386L152.362 164.114L152.094 163.467Z" fill="black"/>
<path d="M142.213 164.546C145.884 163.854 148.334 163.703 152.096 163.467L152.365 164.114L153.062 164.386C149.254 164.76 146.011 164.632 142.213 164.546Z" fill="#3B3106"/>
<path d="M370.421 0.166921C437.871 -1.82458 504.651 14.0339 564.006 46.1374C629.776 82.2934 682.826 137.815 715.951 205.163C721.176 215.843 725.821 226.72 730.021 237.839C734.076 248.562 738.101 258.314 723.561 262.056C713.611 259.71 714.661 256.892 711.006 248.009C709.231 243.685 707.616 239.157 705.796 234.842C702.371 226.752 698.681 218.776 694.736 210.927C663.106 148.144 612.966 96.5844 551.086 63.2159C464.891 17.0929 366.361 9.75992 273.278 37.9919C269.955 39.0594 266.642 40.1604 263.342 41.2949C132.161 86.1534 34.0175 211.965 21.932 350.652C21.074 360.501 21.917 366.855 10.812 370.096C4.63801 368.831 2.861 367.454 0 361.797C0.234 347.126 2.85701 328.314 5.58351 313.988C18.734 244.888 50.3955 180.654 97.1905 128.138C170.695 47.0994 261.448 5.49892 370.421 0.166921Z" fill="#0AA3E0"/>
<path d="M744.106 370.851C750.504 370.375 752.816 372.535 756.354 377.438C757.201 385.2 757.033 400.127 756.775 408.129C755.132 457.053 744.352 505.237 724.986 550.192C717.124 568.452 707.306 587.195 696.385 603.921C694.516 606.779 692.867 607.745 689.733 608.99C668.463 609.757 679.281 589.528 686.074 580.66C687.846 578.346 690.415 573.177 691.92 570.426C701.364 553.37 709.338 535.538 715.756 517.132C725.279 490.019 731.518 461.865 734.341 433.267C735.168 423.777 735.708 414.268 735.962 404.747C736.141 398.981 736.02 393.149 735.898 387.381C735.727 379.193 735.923 374.362 744.106 370.851Z" fill="#F51E70"/>
<path d="M379.27 762.106C377.48 761.731 374.35 761.726 372.38 761.691C353.367 761.321 334.744 759.391 315.93 756.441C236.356 744.576 162.767 707.256 106.186 650.056C53.1025 597.271 17.692 529.321 4.83101 455.576C2.54951 442.441 0.747514 428.196 1.37357e-05 414.804C-0.00498626 410.962 1.35501 407.006 4.16601 404.405C9.40401 399.559 15.623 402.766 19.6165 407.589L20.023 408.09C20.9405 412.987 21.403 423.027 21.9605 428.466C23.107 439.306 24.7935 450.081 27.013 460.751C41.7365 532.981 77.389 594.686 130.78 645.136C185.803 696.476 255.693 729.046 330.397 738.151C346.349 740.241 364.125 741.841 380.27 741.371C381.15 741.246 382.28 741.036 383.14 741.066C395.16 742.866 430.075 738.851 442.23 736.741C445.995 735.871 451.49 734.531 455.265 734.426C471.28 732.791 493.775 725.456 509.17 720.486C516.81 718.021 526.735 713.431 534.38 712.121C546.785 716.421 548.2 727.926 535.4 732.956C491.265 750.286 444.38 760.076 396.985 761.701C394.355 761.791 384.75 762.026 382.69 762.651L379.27 762.106Z" fill="#F51E70"/>
<path d="M614.097 267.167C630.677 266.522 646.982 267.803 663.292 269.983C695.057 274.23 727.062 281.735 759.242 278.977C763.717 278.593 763.472 270.886 767.572 271.162C777.392 271.824 772.532 283.332 767.252 286.465C764.717 287.894 761.412 287.832 758.692 289.416C758.702 298.116 755.002 299.176 746.572 299.417C735.472 299.733 723.647 298.371 712.637 296.826C707.707 296.501 700.892 295.338 695.912 294.497C665.077 289.29 634.102 285.019 602.757 287.652C594.602 288.002 586.302 289.397 578.247 290.13C571.552 290.738 557.617 294.892 552.417 291.284C549.997 289.594 548.422 286.947 548.087 284.015C547.277 276.978 552.207 273.014 558.622 272.327C576.762 270.385 595.902 267.946 614.097 267.167Z" fill="#F51E70"/>
<path d="M507.438 105.277C510.808 104.908 518.503 104.951 521.753 105.154C550.363 107.094 577.228 116.497 596.738 138.06C624.673 168.933 621.188 214.862 589.843 241.946C571.803 257.682 547.933 263.936 524.338 262.132C506.123 260.74 487.563 254.647 475.283 240.375C466.088 229.868 461.538 216.087 462.668 202.172C463.843 187.705 470.243 174.224 481.523 164.959C497.498 151.82 520.113 147.415 539.683 154.401C557.098 160.619 570.828 177.177 568.683 196.36C567.843 204.626 563.708 212.206 557.213 217.388C544.003 227.92 522.123 229.255 510.903 214.84C506.828 209.602 505.528 199.696 511.933 195.897C522.263 189.767 523.473 205.485 532.593 206.124C540.818 206.701 547.783 201.931 548.623 193.362C549.163 179.776 533.448 170.066 521.048 170.396C497.438 171.025 476.588 191.484 484.493 215.851C490.953 235.763 513.078 242.257 532.008 242.023C550.538 241.794 567.398 236.811 580.413 222.954C601.963 200.245 599.758 166.635 576.503 146.147C556.278 128.43 533.848 125.095 507.928 126.042C475.898 127.936 445.678 144.538 432.883 174.999C423.368 197.64 429.593 222.699 448.603 238.177C455.248 243.589 464.263 245.792 467.598 253.856L467.858 254.507C466.203 263.399 464.448 270.024 464.378 279.245C464.108 315.324 507.533 319.602 534.703 318.024C543.043 317.54 551.443 316.257 559.783 315.561C570.733 314.74 581.708 314.224 592.688 314.016C625.338 313.67 655.013 319.447 687.218 322.997C695.393 323.927 703.588 324.648 711.798 325.159C716.288 325.413 722.963 325.197 727.193 326.022C736.148 327.768 733.223 334.002 728.163 337.944C732.918 338.065 748.203 337.322 751.628 340.556C752.478 341.362 752.953 342.412 752.843 343.593C752.728 344.814 752.103 346.067 751.013 346.676C747.533 348.62 716.678 345.216 710.923 344.663C691.798 342.826 672.848 339.773 653.768 337.628C637.088 335.896 620.348 334.825 603.583 334.417C593.098 334.214 582.608 334.494 572.143 335.256C545.473 337.241 523.993 340.895 497.108 335.232C456.033 326.58 437.883 301.939 446.408 260.588C442.503 258.31 438.408 255.641 434.913 252.787C419.708 240.58 410.118 222.718 408.338 203.3C405.133 169.327 425.053 139.305 453.438 122.367C471.173 111.783 487.108 107.044 507.438 105.277Z" fill="#F51E70"/>
<defs>
<linearGradient id="paint0_linear_1351_6687" x1="200.958" y1="168.348" x2="201.939" y2="160.63" gradientUnits="userSpaceOnUse">
<stop stop-color="#000001"/>
<stop offset="1" stop-color="#392907"/>
</linearGradient>
</defs>
</svg>
